<svg width="500" height="500" viewBox="0 0 500 500" fill="none" xmlns="http://www.w3.org/2000/svg">
<path d="M83.0659 196.69C78.9361 154.441 101.6 117.649 161.784 111.766C225.556 105.532 255.457 134.461 255.457 179.839C255.457 229.402 224.344 260.11 176.739 264.763L175.159 248.601C195.866 246.577 211.637 239.055 222.176 227.959C232.629 216.954 239.218 201.093 239.218 179.839C239.218 160.791 233.084 147.524 222.508 139.222C211.538 130.611 192.885 125.042 163.364 127.927C136.332 130.57 120.044 139.866 110.784 150.984C101.495 162.137 97.4838 177.271 99.2276 195.11C102.313 226.674 134.614 252.565 175.159 248.601L176.739 264.763C129.135 269.416 87.1957 238.939 83.0659 196.69Z" fill="black"/>
<path d="M266.822 166.14C275.904 165.43 286.818 166.317 296 172.051L287.607 186.319C282.541 183.155 275.553 182.189 268.048 182.776C260.659 183.354 253.826 185.359 250.013 186.93L244 171.441C249.182 169.305 257.625 166.86 266.822 166.14Z" fill="black"/>
<path d="M164.463 166.172C180.52 164.472 197.855 171.654 205.432 190.685C207.083 194.833 205.012 199.515 200.807 201.143C196.601 202.772 191.852 200.73 190.201 196.582C185.704 185.288 176.041 181.175 166.21 182.215C155.908 183.306 146.757 189.928 144.038 199.12C142.773 203.397 138.231 205.853 133.893 204.606C129.556 203.358 127.064 198.879 128.329 194.602C133.247 177.976 148.875 167.822 164.463 166.172Z" fill="black"/>
<path d="M366.667 154.873C374.354 153.384 382.714 153.948 390.59 157.636C398.51 161.344 405.383 167.95 410.477 177.598C412.571 181.563 411.054 186.475 407.089 188.569C403.123 190.662 398.211 189.145 396.118 185.18C392.452 178.237 388.018 174.363 383.703 172.342C379.345 170.302 374.541 169.888 369.754 170.815C359.706 172.761 351.373 180.188 349.152 187.404C347.833 191.69 343.29 194.096 339.004 192.777C334.718 191.458 332.312 186.915 333.631 182.629C337.906 168.735 351.767 157.758 366.667 154.873Z" fill="black"/>
<path d="M282.832 188.557C278.253 141.713 301.366 109.516 361.55 103.633C425.322 97.3996 455.223 136.301 455.223 171.706C455.223 221.27 424.11 251.977 376.505 256.63L374.925 240.469C395.632 238.445 411.403 230.922 421.942 219.827C432.395 208.821 438.984 192.961 438.985 171.707C438.985 158.488 433.387 144.473 421.673 134.333C410.154 124.361 391.386 117.033 363.13 119.795C335.481 122.498 319.225 130.963 310.16 141.39C301.227 151.664 296.99 166.483 298.994 186.978C301.72 214.867 329.009 244.957 374.925 240.469L376.505 256.63C321.905 261.967 286.454 225.613 282.832 188.557Z" fill="black"/>
<path d="M407.564 52.7004C411.705 50.9812 416.456 52.945 418.176 57.0865L410.677 60.1994C417.931 57.1883 418.168 57.09 418.176 57.0876L418.177 57.0906C418.178 57.0932 418.18 57.0978 418.182 57.1027C418.186 57.1124 418.192 57.1266 418.2 57.145C418.216 57.1822 418.238 57.2373 418.267 57.3094C418.327 57.4539 418.416 57.6677 418.531 57.9465C418.761 58.5041 419.098 59.3227 419.527 60.372C420.386 62.4707 421.616 65.4935 423.104 69.1991C426.08 76.6076 430.095 86.7594 434.247 97.7212C442.415 119.287 451.546 145.087 453.835 158.806C454.573 163.229 451.585 167.413 447.162 168.151C442.739 168.889 438.556 165.901 437.818 161.478C435.847 149.668 427.403 125.496 419.061 103.473C414.958 92.6404 410.984 82.593 408.035 75.2513C406.562 71.582 405.345 68.5915 404.498 66.521C404.074 65.486 403.743 64.6807 403.518 64.1358C403.406 63.8636 403.32 63.6564 403.263 63.5178C403.234 63.4486 403.213 63.3959 403.199 63.3615C403.192 63.3444 403.186 63.3315 403.183 63.3233C403.181 63.3193 403.18 63.316 403.179 63.3141L403.178 63.3122C401.459 59.1707 403.422 54.4196 407.564 52.7004Z" fill="black"/>
<path d="M52.0531 100.431C47.7883 101.817 45.4542 106.397 46.8396 110.662L54.5617 108.154C47.092 110.58 46.8479 110.66 46.8402 110.663L46.841 110.666C46.8419 110.669 46.8435 110.674 46.8451 110.679C46.8484 110.689 46.8529 110.704 46.859 110.722C46.8715 110.761 46.8905 110.817 46.9147 110.891C46.9632 111.04 47.0346 111.26 47.1285 111.547C47.3162 112.12 47.5924 112.961 47.9482 114.037C48.6597 116.19 49.6897 119.287 50.9671 123.071C53.521 130.635 57.0685 140.959 61.0382 151.988C68.8483 173.687 78.679 199.228 85.8564 211.142C88.1704 214.982 93.16 216.22 97.001 213.906C100.842 211.592 102.08 206.602 99.7656 202.761C93.587 192.506 84.2926 168.647 76.3171 146.489C72.3942 135.59 68.8833 125.372 66.3524 117.875C65.0875 114.129 64.0683 111.066 63.3663 108.942C63.0154 107.88 62.7438 107.052 62.5604 106.492C62.4687 106.212 62.3993 105.999 62.3528 105.857C62.3296 105.785 62.3115 105.731 62.3 105.696C62.2942 105.678 62.2902 105.665 62.2874 105.656C62.286 105.652 62.2847 105.649 62.2841 105.647L62.2838 105.645C60.8984 101.38 56.3179 99.046 52.0531 100.431Z" fill="black"/>
<path d="M269.788 256.936C273.132 253.98 278.206 254.333 281.121 257.725L275.697 262.52C280.97 257.86 281.118 257.731 281.123 257.728L281.126 257.731C281.128 257.734 281.131 257.737 281.134 257.741C281.141 257.748 281.149 257.759 281.16 257.771C281.18 257.795 281.209 257.827 281.244 257.869C281.316 257.954 281.418 258.074 281.548 258.229C281.807 258.538 282.177 258.983 282.642 259.552C283.571 260.689 284.88 262.322 286.428 264.342C289.513 268.368 293.595 273.993 297.526 280.33C301.431 286.626 305.338 293.864 307.919 301.093C310.428 308.12 312.1 316.268 310.142 323.814C306.318 338.554 293.709 344.238 284.493 346.383C279.724 347.494 275.236 347.836 271.988 347.912C270.349 347.951 268.985 347.922 268.009 347.883C267.52 347.863 267.125 347.839 266.84 347.82C266.697 347.81 266.581 347.801 266.493 347.794C266.45 347.791 266.414 347.788 266.385 347.786C266.37 347.785 266.357 347.784 266.346 347.783C266.341 347.782 266.336 347.782 266.331 347.782C266.329 347.782 266.324 347.781 266.324 347.781C266.322 347.775 266.338 347.563 267.033 339.665L266.319 347.781C261.9 347.38 258.638 343.422 259.032 338.94C259.427 334.459 263.328 331.15 267.746 331.549C267.773 331.551 267.826 331.556 267.902 331.561C268.058 331.571 268.314 331.586 268.655 331.6C269.34 331.628 270.361 331.651 271.616 331.621C274.158 331.562 277.502 331.293 280.899 330.502C288.015 328.846 293.077 325.566 294.607 319.666C295.327 316.892 294.924 312.547 292.815 306.641C290.777 300.935 287.522 294.798 283.93 289.008C280.365 283.26 276.615 278.089 273.743 274.341C272.313 272.474 271.111 270.976 270.275 269.953C269.858 269.441 269.531 269.049 269.314 268.791C269.206 268.662 269.125 268.566 269.074 268.506C269.048 268.476 269.03 268.455 269.019 268.442C269.015 268.437 269.012 268.432 269.01 268.43V268.431C266.096 265.039 266.444 259.892 269.788 256.936Z" fill="black"/>
<path d="M341.294 377.95C343.98 377.762 346.586 378.92 348.254 381.043C349.921 383.167 350.433 385.982 349.623 388.561L341.862 386.102L349.621 388.566C349.621 388.566 349.619 388.571 349.618 388.573C349.617 388.578 349.615 388.584 349.613 388.59C349.609 388.603 349.604 388.619 349.598 388.638C349.586 388.676 349.57 388.726 349.55 388.788C349.509 388.913 349.452 389.085 349.379 389.301C349.233 389.734 349.021 390.348 348.741 391.115C348.182 392.649 347.349 394.81 346.233 397.403C344.008 402.572 340.609 409.554 335.918 416.752C326.723 430.859 311.51 447.364 289.078 450.43C264.985 453.723 241.947 440.159 226.059 427.538C217.897 421.053 211.118 414.412 206.386 409.405C204.014 406.896 202.14 404.78 200.848 403.277C200.201 402.525 199.699 401.924 199.351 401.504C199.178 401.294 199.043 401.129 198.948 401.011C198.9 400.953 198.863 400.906 198.835 400.872C198.822 400.855 198.81 400.84 198.802 400.83C198.797 400.824 198.794 400.819 198.791 400.816C198.789 400.814 198.787 400.81 198.787 400.81C198.792 400.803 199.001 400.632 205.138 395.702L198.784 400.807C196.893 398.435 196.47 395.205 197.685 392.422C198.899 389.639 201.552 387.763 204.57 387.551L341.294 377.95ZM222.607 402.666C226.393 406.403 230.984 410.61 236.158 414.721C251.391 426.823 269.775 436.574 286.883 434.236C302.284 432.131 314.011 420.519 322.299 407.803C325.193 403.363 327.537 398.978 329.359 395.17L222.607 402.666Z" fill="black"/>
<path d="M88.9036 293.383C90.7329 290.297 94.7182 289.278 97.8041 291.108C100.89 292.937 101.908 296.922 100.079 300.007L91.9796 313.67C90.1503 316.756 86.166 317.774 83.0801 315.944C79.9943 314.115 78.975 310.131 80.8043 307.045L88.9036 293.383Z" fill="black"/>
<path d="M372.44 279.483C374.173 276.343 378.124 275.202 381.265 276.935C384.406 278.668 385.547 282.619 383.814 285.76L375.75 300.376C374.017 303.516 370.066 304.657 366.925 302.924C363.784 301.191 362.643 297.24 364.376 294.099L372.44 279.483Z" fill="black"/>
<path d="M120.395 292.231C122.224 289.146 126.21 288.127 129.295 289.956C132.381 291.786 133.399 295.77 131.57 298.856L123.471 312.519C121.642 315.604 117.657 316.622 114.572 314.793C111.486 312.963 110.466 308.979 112.296 305.893L120.395 292.231Z" fill="black"/>
<path d="M403.931 278.332C405.664 275.191 409.615 274.05 412.756 275.783C415.897 277.516 417.038 281.467 415.305 284.608L407.241 299.224C405.508 302.365 401.557 303.506 398.416 301.773C395.275 300.039 394.134 296.088 395.867 292.948L403.931 278.332Z" fill="black"/>
<path d="M152.841 291.045C154.67 287.959 158.655 286.94 161.741 288.77C164.827 290.599 165.845 294.584 164.016 297.669L155.917 311.332C154.087 314.418 150.103 315.436 147.017 313.606C143.931 311.777 142.912 307.793 144.741 304.707L152.841 291.045Z" fill="black"/>
<path d="M436.377 277.145C438.11 274.004 442.061 272.863 445.202 274.597C448.343 276.33 449.484 280.281 447.751 283.422L439.687 298.037C437.954 301.178 434.003 302.319 430.862 300.586C427.721 298.853 426.58 294.902 428.313 291.761L436.377 277.145Z" fill="black"/>
<path d="M391 377.43C391 382.125 387.194 385.93 382.5 385.93C377.806 385.93 374 382.125 374 377.43C374 372.736 377.806 368.93 382.5 368.93C387.194 368.93 391 372.736 391 377.43Z" fill="black"/>
</svg>
